<?xml version="1.0" encoding="UTF-8" standalone="no"?>
<svg
   xmlns:dc="http://purl.org/dc/elements/1.1/"
   xmlns:cc="http://creativecommons.org/ns#"
   xmlns:rdf="http://www.w3.org/1999/02/22-rdf-syntax-ns#"
   xmlns:svg="http://www.w3.org/2000/svg"
   xmlns="http://www.w3.org/2000/svg"
   xmlns:sodipodi="http://sodipodi.sourceforge.net/DTD/sodipodi-0.dtd"
   xmlns:inkscape="http://www.inkscape.org/namespaces/inkscape"
   version="1.1"
   id="Layer_1"
   x="0px"
   y="0px"
   viewBox="0 0 496.158 496.158"
   style="enable-background:new 0 0 496.158 496.158;"
   xml:space="preserve"
   sodipodi:docname="tooltip.svg"
   inkscape:version="1.0.2 (e86c870879, 2021-01-15)"><metadata
   id="metadata41"><rdf:RDF><cc:Work
       rdf:about=""><dc:format>image/svg+xml</dc:format><dc:type
         rdf:resource="http://purl.org/dc/dcmitype/StillImage" /></cc:Work></rdf:RDF></metadata><defs
   id="defs39" /><sodipodi:namedview
   pagecolor="#ffffff"
   bordercolor="#666666"
   borderopacity="1"
   objecttolerance="10"
   gridtolerance="10"
   guidetolerance="10"
   inkscape:pageopacity="0"
   inkscape:pageshadow="2"
   inkscape:window-width="1920"
   inkscape:window-height="973"
   id="namedview37"
   showgrid="false"
   inkscape:zoom="1.6244826"
   inkscape:cx="248.07899"
   inkscape:cy="223.45577"
   inkscape:window-x="0"
   inkscape:window-y="28"
   inkscape:window-maximized="1"
   inkscape:current-layer="Layer_1"
   inkscape:document-rotation="0" />
<path
   id="path2"
   style="fill:#7080af;fill-opacity:1"
   d="M 248.08203 0.00390625 C 111.06903 0.00390625 -3.7895613e-14 111.06394 0 248.08594 C 0 385.08694 111.06903 496.1543 248.08203 496.1543 C 385.08803 496.1543 496.1582 385.08694 496.1582 248.08594 C 496.1582 111.06394 385.08803 0.00390625 248.08203 0.00390625 z M 250.71484 81.746094 C 271.95284 81.746094 290.70484 85.667953 306.96484 93.501953 C 323.22484 101.33995 335.78344 111.99766 344.64844 125.47266 C 353.50944 138.95166 357.94141 153.59797 357.94141 169.41797 C 357.94141 181.86997 355.41338 192.78425 350.35938 202.15625 C 345.30538 211.53225 339.2978 219.62555 332.3418 226.43555 C 325.3828 233.24755 312.89591 244.70927 294.87891 260.82227 C 289.89791 265.36427 285.9043 269.35783 282.9043 272.79883 C 279.9003 276.24183 277.66417 279.39109 276.20117 282.24609 C 274.73517 285.10309 273.59987 287.95941 272.79688 290.81641 C 271.98987 293.67141 270.78188 298.69119 269.17188 305.86719 C 266.38788 321.10319 257.66944 328.71875 243.02344 328.71875 C 235.40544 328.71875 228.99683 326.23005 223.79883 321.24805 C 218.59783 316.26905 215.99805 308.87164 215.99805 299.05664 C 215.99805 286.75164 217.89994 276.09394 221.71094 267.08594 C 225.51894 258.07594 230.57109 250.16547 236.87109 243.35547 C 243.16709 236.54347 251.66538 228.45217 262.35938 219.07617 C 271.73237 210.87417 278.51055 204.68477 282.68555 200.50977 C 286.86055 196.33477 290.37542 191.68664 293.23242 186.55664 C 296.08842 181.43064 297.51758 175.86542 297.51758 169.85742 C 297.51758 158.13942 293.15736 148.25136 284.44336 140.19336 C 275.72636 132.13936 264.48184 128.10938 250.71484 128.10938 C 234.59884 128.10938 222.73414 132.17469 215.11914 140.30469 C 207.50114 148.43469 201.0572 160.40852 195.7832 176.22852 C 190.8022 192.78352 181.3525 201.05859 167.4375 201.05859 C 159.2315 201.05859 152.31083 198.16691 146.67383 192.37891 C 141.03483 186.59291 138.2168 180.3308 138.2168 173.5918 C 138.2168 159.6768 142.68314 145.57692 151.61914 131.29492 C 160.55214 117.01292 173.59247 105.18459 190.73047 95.808594 C 207.86947 86.435594 227.86384 81.746094 250.71484 81.746094 z M 245.44141 348.71484 C 254.67041 348.71484 262.43242 351.86511 268.73242 358.16211 C 275.02842 364.46211 278.17969 372.22413 278.17969 381.45312 C 278.17969 391.70812 274.88497 399.76505 268.29297 405.62305 C 261.70097 411.48105 254.08341 414.41211 245.44141 414.41211 C 236.50441 414.41211 228.70502 411.51742 222.04102 405.73242 C 215.37402 399.94842 212.04297 391.85512 212.04297 381.45312 C 212.04297 372.22413 215.26294 364.46211 221.71094 358.16211 C 228.15494 351.86511 236.06541 348.71484 245.44141 348.71484 z " />

<g
   id="g6">
</g>
<g
   id="g8">
</g>
<g
   id="g10">
</g>
<g
   id="g12">
</g>
<g
   id="g14">
</g>
<g
   id="g16">
</g>
<g
   id="g18">
</g>
<g
   id="g20">
</g>
<g
   id="g22">
</g>
<g
   id="g24">
</g>
<g
   id="g26">
</g>
<g
   id="g28">
</g>
<g
   id="g30">
</g>
<g
   id="g32">
</g>
<g
   id="g34">
</g>
</svg>
